<svg xmlns="http://www.w3.org/2000/svg" xml:space="preserve" width="2000" height="1500" data-id="lg_X6DKaxMYpjsi4YppdL" data-version="1"><path fill="#ed3b43" stroke="transparent" d="M0 0h2000v1500H0z"/><g data-padding="20"><g transform="translate(-992.397 -735.198)scale(1.92596)"><path fill="#fff" stroke="transparent" d="M813.19 912.821q-4.6-.49-7.01-4.11-2.42-3.63-1.94-7.98 1.21-7.49 4.6-13.77 3.38-6.29 4.95-9.43t3.26-7.01l9.19-21.27 99.34-297.53 106.83 206.41 103.69-206.41 123.99 357.47H1130.3l-59.94-184.66-92.82 193.36-97.64-174.02-33.84 105.62q-7.98 17.65-11.36 29.97-3.39 12.33-5.56 19.1-4.83 15.22-15.95 14.26"/><rect width="465.33" height="559.35" x="400.829" y="90.801" fill="none" rx="0" ry="0" transform="translate(401 400.67)"/></g><path fill="transparent" stroke="transparent" stroke-width="2.013" d="M532.089 187.5h935.822v1125H532.09z"/></g></svg>